<?xml version="1.0" encoding="UTF-8"?>
<svg xmlns="http://www.w3.org/2000/svg" xmlns:xlink="http://www.w3.org/1999/xlink" viewBox="0 0 48 48" width="48px" height="48px">
<g id="surface16307348">
<path style=" stroke:none;fill-rule:nonzero;fill:rgb(20.392157%,59.607846%,85.882354%);fill-opacity:1;" d="M 19.847656 41.957031 C 14.21875 41.953125 8.589844 41.980469 2.960938 41.941406 C 0.105469 41.925781 -0.414062 41.242188 0.226562 38.417969 C 2.40625 28.839844 4.65625 19.273438 6.785156 9.683594 C 7.355469 7.113281 8.589844 5.976562 11.3125 6 C 22.570312 6.105469 33.828125 6.035156 45.089844 6.046875 C 47.910156 6.050781 48.386719 6.660156 47.753906 9.558594 C 45.695312 18.964844 43.621094 28.367188 41.515625 37.761719 C 40.726562 41.277344 39.820312 41.945312 36.164062 41.953125 C 30.722656 41.964844 25.285156 41.957031 19.847656 41.957031 Z M 19.847656 41.957031 "/>
<path style=" stroke:none;fill-rule:nonzero;fill:rgb(98.039216%,98.039216%,98.039216%);fill-opacity:1;" d="M 25.058594 23.921875 C 24.449219 23.234375 23.941406 22.65625 23.527344 22.191406 C 21.097656 19.460938 18.871094 16.921875 16.464844 14.320312 C 15.359375 13.132812 15.011719 11.976562 16.332031 10.804688 C 17.640625 9.644531 18.925781 9.746094 20.125 11.078125 C 23.464844 14.796875 26.800781 18.519531 30.195312 22.183594 C 31.464844 23.554688 31.167969 24.484375 29.769531 25.5 C 24.410156 29.394531 19.085938 33.332031 13.761719 37.277344 C 12.566406 38.164062 11.425781 38.386719 10.457031 37.074219 C 9.390625 35.632812 10.378906 34.769531 11.484375 33.960938 C 15.4375 31.070312 19.386719 28.164062 23.316406 25.238281 C 23.863281 24.828125 24.59375 24.265625 25.058594 23.921875 Z M 21.75 37 C 20.625 37 20 36 20 35 C 20 34 20.625 33 21.75 33 C 25.972656 33 27.863281 33 31.25 33 C 32.375 33 33 34 33 35 C 33 36 32.375 37 31.25 37 C 29.125 37 25 37 21.75 37 Z M 21.75 37 "/>
</g>
</svg>
